<svg xmlns="http://www.w3.org/2000/svg" viewBox="0 0 100 100">
  <defs>
    <linearGradient id="grad" x1="0%" y1="0%" x2="100%" y2="100%">
      <stop offset="0%" style="stop-color:#C67C4E;stop-opacity:1" />
      <stop offset="100%" style="stop-color:#8A5A3B;stop-opacity:1" />
    </linearGradient>
  </defs>
  <circle cx="50" cy="50" r="48" fill="url(#grad)"/>
  <path d="M50 20C35 20 25 32 25 52c0 16 9 28 23 32 2 0 3-1 3-2v-6c0-2-1-2-3-2-9 0-15-8-15-20 0-14 8-22 19-22 6 0 11 4 11 12 0 9-6 16-15 20-4 1-6 4-6 8v8c0 4 4 8 9 8 19 0 31-16 31-36S65 20 50 20z" fill="white"/>
</svg>
